<svg width="758" height="559" viewBox="0 0 758 559" fill="none" xmlns="http://www.w3.org/2000/svg">
    <path d="M698.319 135.885C612.288 17.0273 430.55 -31.1865 251.817 20.7409C157.326 48.1934 66.2199 103.199 21.0697 209.706C-59.6411 400.1 109.821 460.907 220.632 480.287C274.213 489.658 324.678 505.4 370.793 526.832C453.759 565.39 600.614 599.556 711.352 438.944C791.615 322.532 755.625 215.056 698.319 135.885Z" fill="#F2F2F2"/>
    <path d="M226.888 158.633C226.669 156.781 226.224 154.967 225.567 153.236C225.483 152.909 225.337 152.604 225.136 152.341C224.936 152.077 224.686 151.862 224.403 151.707C224.025 151.602 223.629 151.597 223.249 151.693L217.321 152.661C216.824 152.685 216.349 152.882 215.968 153.222C215.196 154.089 215.956 155.484 215.933 156.68C215.906 158.024 214.787 159.115 213.573 159.476C212.334 159.744 211.056 159.727 209.824 159.427L201.534 158.052C203.976 157.22 206.149 155.673 207.805 153.586C208.896 152.207 209.477 149.632 207.9 148.979C207.432 148.841 206.943 148.799 206.46 148.855C202.705 148.886 199.749 145.54 196.233 144.13C193.983 143.286 191.54 143.224 189.254 143.951C186.969 144.678 184.957 146.158 183.507 148.179L187.923 148.406C188.338 148.382 188.75 148.499 189.099 148.741C190.067 149.59 188.864 151.22 189 152.549C189.177 154.275 191.325 154.644 192.944 154.818C194.563 154.993 196.617 156.397 195.838 157.922C187.701 160.913 179.42 152.074 170.874 153.162C168.711 153.437 166.668 154.344 164.556 154.914C151.656 158.398 138.32 149.104 125.141 151.072C122.212 151.605 119.332 152.416 116.537 153.494C114.744 154.122 112.873 154.802 111.57 156.259C110.266 157.717 109.77 160.21 111.005 161.734C107.602 162.033 104.176 161.685 100.887 160.708C101.777 161.235 102.517 162.009 103.03 162.947C103.542 163.885 103.809 164.953 103.802 166.039C98.4884 166.964 93.3159 168.647 88.4233 171.043C89.3364 172.664 90.403 174.18 91.6062 175.569L84.8799 180.181C87.1524 180.792 88.3273 184.099 87.0058 186.164C89.3621 185.046 90.8224 182.151 93.342 181.565C94.9928 181.18 96.6724 181.901 98.2384 182.578C99.8043 183.255 101.525 183.912 103.147 183.403C104.768 182.895 105.963 180.652 104.933 179.223C111.862 177.065 119.023 175.871 126.239 175.67C126.795 175.596 127.36 175.71 127.852 175.997C128.792 176.692 128.544 178.195 128.494 179.413C128.443 180.632 129.333 182.234 130.354 181.685C129.153 182.796 130.18 184.888 131.332 186.057C132.484 187.226 133.873 188.838 133.167 190.359C132.983 190.755 132.671 191.073 132.494 191.473C131.971 192.655 132.801 194.033 133.78 194.818C134.759 195.602 135.959 196.151 136.639 197.238C137.319 198.324 137.01 200.227 135.794 200.378L132.337 195.694C131.156 197.001 130.346 198.639 130.002 200.417C133.668 203.615 134.219 210.125 131.15 213.973C129.582 215.94 127.351 217.135 125.405 218.669C123.458 220.202 121.657 222.387 121.662 224.969C121.67 229.43 121.329 233.575 122.895 237.712C125.784 245.339 129.119 252.765 132.88 259.945C133.868 261.831 135.145 263.897 137.146 264.222C134.617 257.651 132.34 250.978 130.316 244.203C131.634 244.208 133.158 244.32 133.931 245.46C134.571 246.404 134.433 247.687 134.632 248.833C134.885 249.943 135.307 251.001 135.881 251.965L147.958 274.925C148.959 276.828 150.107 278.871 152.021 279.642C153.244 280.135 154.659 280.042 155.785 280.751C156.668 281.307 157.262 282.294 158.162 282.818C160.706 284.299 164.244 281.459 166.621 283.227C167.301 283.733 167.733 284.536 168.36 285.115C170.556 287.145 174.158 285.787 176.692 287.301C178.326 288.276 179.173 290.228 180.044 291.996C182.227 296.426 185.758 300.765 190.436 301.118C191.905 301.229 193.406 300.931 194.842 301.28C196.279 301.629 197.692 302.967 197.462 304.519C197.067 307.181 198.299 310.096 197.968 312.768C197.365 317.635 190.897 319.774 190.341 324.647C190.22 325.714 190.41 326.815 190.172 327.86C189.88 329.14 188.979 330.182 188.659 331.454C188.053 333.865 189.671 336.265 191.45 337.887C193.228 339.509 195.349 340.908 196.321 343.179C197.348 345.579 196.844 348.378 197.178 350.992C197.907 356.7 202.527 360.932 207.281 363.66C208.729 364.491 210.284 365.296 211.222 366.738C212.445 368.62 212.324 371.102 212.732 373.351C213.733 378.859 218.077 383.397 218.201 389.006C218.288 392.993 216.212 396.609 214.972 400.371C213.809 403.975 213.388 407.804 213.738 411.598C214.088 415.391 215.2 419.059 216.999 422.352C217.927 424.024 219.037 425.601 219.693 427.414C220.865 430.649 220.485 434.326 221.565 437.597C222.993 441.921 226.916 445.493 226.541 450.061C228.322 454.008 232.255 455.948 236.21 457.123L243.299 459.229C244.656 459.632 246.074 460.039 247.456 459.747C248.838 459.455 250.157 458.23 250.122 456.727C246.646 455.89 243.058 455 240.193 452.74C237.327 450.479 235.364 446.453 236.451 442.832C236.955 441.152 238.028 439.213 237.008 437.825C236.425 437.031 235.357 436.823 234.698 436.098C233.671 434.968 234.024 433.068 234.763 431.705C235.501 430.341 236.568 429.123 236.866 427.58C237.016 426.717 236.916 425.826 236.578 425.026C236.24 424.226 235.681 423.555 234.976 423.103C236.291 422.574 237.486 421.755 238.485 420.701C239.407 419.576 239.834 417.842 239.108 416.564C241.263 416.856 243.808 416.999 245.223 415.239C246.353 413.834 246.275 411.733 245.829 409.944C245.382 408.155 244.628 406.417 244.604 404.565C249.576 404.817 254.559 404.636 259.504 404.026C258.789 401.456 257.164 399.284 254.974 397.971C257.213 397.567 259.253 394.705 259.961 392.402C260.668 390.098 260.488 387.589 260.051 385.211C259.883 384.598 259.86 383.951 259.984 383.327C260.236 382.469 261.025 381.946 261.756 381.498L272.872 374.685C273.535 374.33 274.136 373.856 274.649 373.284C275.814 371.824 275.641 369.62 275.045 367.811C274.449 366.003 273.493 364.302 273.264 362.4C272.577 356.713 278.281 352.632 280.206 347.279C280.962 345.178 281.116 342.894 281.262 340.649C281.419 338.238 281.431 335.437 279.696 333.883C278.033 332.394 275.435 332.726 273.695 331.341C272.1 330.07 271.549 327.603 269.807 326.577C268.224 325.646 266.239 326.238 264.479 325.8C261.38 325.028 259.43 321.216 256.264 320.863C254.478 320.664 252.457 321.596 250.994 320.486C249.704 319.508 249.652 317.542 249.407 315.874C248.976 313.281 247.812 310.891 246.07 309.027C244.329 307.162 242.094 305.912 239.666 305.444C237.824 305.129 235.82 305.249 234.254 304.169C232.668 303.075 231.94 301.028 230.694 299.513C228.686 297.073 225.524 296.205 222.561 295.462L210.51 292.439C208.371 291.902 205.613 291.617 204.465 293.617C204.125 294.379 203.885 295.186 203.75 296.017C203.32 297.521 202.454 298.84 201.277 299.785C200.101 300.731 198.673 301.253 197.201 301.279C196.191 299.44 194.554 298.089 192.633 297.507C191.411 297.143 190.103 297.103 188.938 296.568C188.303 296.238 187.738 295.772 187.278 295.201C186.818 294.629 186.472 293.963 186.261 293.244C186.05 292.524 185.979 291.766 186.052 291.017C186.125 290.267 186.341 289.541 186.686 288.883C187.38 287.563 187.649 286.035 187.449 284.536C187.25 283.037 186.593 281.65 185.581 280.588C183.532 278.625 180.568 278.15 177.82 278.347C177.1 276.671 178.303 274.78 179.6 273.562C180.897 272.344 182.472 271.146 182.754 269.327C183.198 266.466 179.778 264.293 177.181 265.146C174.584 265.999 172.926 268.692 171.83 271.346C171.202 272.868 170.667 274.472 169.675 275.755C168.684 277.039 167.087 277.959 165.576 277.547C163.438 276.963 162.612 274.252 162.139 271.951C161.504 268.864 160.865 265.734 160.998 262.577C161.131 259.419 162.128 256.177 164.31 254.04C167.865 250.557 173.318 250.898 178.115 251.454C176.982 250.091 177.262 247.794 178.475 246.511C179.115 245.904 179.884 245.473 180.716 245.255C181.548 245.037 182.416 245.039 183.247 245.26C184.693 245.581 185.995 246.412 186.945 247.619C188.308 249.393 188.696 251.788 189.726 253.802C190.757 255.816 193.074 257.533 194.97 256.453C196.608 255.52 196.868 253.095 196.461 251.162C196.053 249.229 195.187 247.349 195.335 245.373C195.617 241.604 199.278 239.335 202.508 237.783C205.739 236.23 209.438 234.143 209.95 230.401C209.968 229.668 210.097 228.944 210.334 228.256C210.692 227.648 211.19 227.148 211.78 226.804C221.209 220.153 230.795 213.422 241.571 209.788C242.132 209.599 242.198 209.809 242.769 209.661C243.569 209.168 243.039 207.803 242.272 207.253C241.506 206.704 240.481 206.282 240.286 205.319C240.143 204.61 240.534 203.915 240.636 203.198C240.886 201.438 238.912 199.812 237.38 200.516C236.514 199.292 238.227 197.871 239.612 197.464C243.771 196.242 248.04 195.498 252.347 195.243C252.844 195.159 253.354 195.251 253.797 195.506C254.52 196.041 254.428 197.268 253.915 198.031C253.402 198.794 252.605 199.274 251.966 199.92C251.268 200.645 250.77 201.562 250.527 202.569C250.283 203.576 250.304 204.635 250.586 205.63C252.834 206.851 255.279 208.108 257.769 207.678C260.26 207.248 262.47 204.261 261.299 201.876C260.209 199.655 256.935 199.155 256.372 196.72C255.713 193.87 259.493 191.336 258.641 188.544C258.268 187.322 257.127 186.602 256.251 185.719C255.216 184.637 254.512 183.246 254.232 181.729C253.951 180.212 254.107 178.64 254.679 177.22C253.252 177.488 251.785 177.386 250.403 176.924C249.02 176.463 247.761 175.654 246.732 174.565C244.831 172.518 243.314 169.288 240.615 169.38C238.138 169.464 236.004 172.548 233.688 171.607C233.118 171.376 232.518 170.905 231.966 171.181C231.785 171.306 231.633 171.474 231.521 171.671C231.41 171.868 231.342 172.09 231.323 172.319C230.734 175.322 231.747 178.744 230.213 181.34C228.544 184.164 224.684 184.555 222.66 187.102C221.562 188.484 221.136 190.347 220.127 191.805C219.117 193.262 216.975 194.189 215.763 192.919C216.358 191.612 216.521 190.129 216.224 188.711C215.927 187.293 215.189 186.025 214.129 185.113C213.004 184.33 211.792 183.7 210.52 183.239C209.099 182.597 207.747 181.793 206.488 180.841C205.857 180.435 205.345 179.85 205.008 179.151C204.741 178.275 204.777 177.327 205.109 176.478C205.723 174.598 206.807 172.933 208.243 171.662C209.68 170.392 211.414 169.564 213.258 169.269C214.872 169.034 216.749 169.117 217.817 167.805C218.382 167.111 218.678 166.062 219.498 165.78C220.022 165.667 220.567 165.739 221.05 165.984L227.071 168.246C227.743 168.569 228.482 168.7 229.216 168.624C229.58 168.572 229.912 168.375 230.145 168.072C230.378 167.77 230.495 167.384 230.473 166.993C230.281 165.926 228.742 165.414 228.882 164.338C228.961 163.989 229.137 163.674 229.386 163.434C231.559 160.965 234.217 159.04 237.168 157.796C240.12 156.552 243.293 156.02 246.46 156.238C247.22 157.57 246.018 159.148 245.018 160.285C244.018 161.422 243.214 163.454 244.423 164.329C244.919 164.599 245.47 164.731 246.026 164.714C247.509 164.928 248.95 165.395 250.294 166.096C252.374 167.062 254.415 168.119 256.416 169.268C256.239 167.86 256.07 166.377 256.57 165.06C257.07 163.744 258.491 162.711 259.733 163.224C260.929 163.718 261.542 165.408 262.817 165.563C264.517 165.77 265.188 163.089 264.478 161.428C263.767 159.766 262.362 158.375 262.244 156.553C262.165 155.324 262.603 153.8 261.683 153.056C261.356 152.832 260.985 152.693 260.598 152.65L237.629 148.138C236.265 147.871 234.294 148.076 234.234 149.555C234.2 150.38 234.891 151.197 234.585 151.956C234.258 152.766 233.185 152.691 232.404 152.978C231.192 153.423 230.583 154.959 230.7 156.322C230.913 157.675 231.404 158.962 232.138 160.09C230.644 159.423 228.382 159.3 226.888 158.633Z" fill="#512B52"/>
    <path d="M208.561 137.824C207.112 137.312 205.552 137.288 204.09 137.756C202.629 138.223 201.337 139.158 200.39 140.435C200.012 140.967 199.695 141.699 200.011 142.275C200.465 143.1 201.622 142.774 202.475 142.479C203.728 142.001 205.092 141.966 206.366 142.38C207.166 142.673 207.883 143.192 208.687 143.474C209.078 143.649 209.507 143.707 209.927 143.641C210.347 143.576 210.742 143.389 211.07 143.102C211.622 142.502 211.657 141.568 211.658 140.726C211.696 140.445 211.675 140.158 211.596 139.886C211.517 139.614 211.382 139.365 211.202 139.156C210.88 138.957 210.518 138.842 210.146 138.822C209.314 138.658 208.562 138.189 208.019 137.496" fill="#512B52"/>
    <path d="M216.843 135.363C216.519 135.344 216.196 135.414 215.905 135.567C215.613 135.72 215.364 135.951 215.18 136.237C214.996 136.522 214.885 136.853 214.856 137.199C214.827 137.544 214.881 137.891 215.014 138.207C216.01 138.497 217.05 138.569 218.072 138.42C218.582 138.335 219.057 138.091 219.437 137.719C219.818 137.347 220.086 136.863 220.209 136.328C219.006 136.562 217.764 136.309 216.726 135.618" fill="#512B52"/>
    <path d="M244.631 131.253C241.922 131.867 239.29 132.822 236.79 134.095C237.968 134.579 238.97 135.453 239.648 136.59C240.325 137.727 240.642 139.066 240.553 140.41C240.447 140.926 240.459 141.462 240.588 141.972C240.876 142.717 241.711 142.996 242.444 143.188C243.763 143.616 245.139 143.803 246.515 143.742C247.204 143.704 247.873 143.483 248.461 143.099C249.049 142.715 249.539 142.181 249.885 141.545C250.085 140.941 250.319 140.35 250.586 139.777C252.344 136.918 257.568 140.375 259.456 137.612C260.121 136.639 260.061 135.174 260.928 134.403C261.376 134.067 261.896 133.855 262.44 133.787C266.237 132.982 270.072 132.399 273.928 132.041C275.756 131.871 278.137 131.171 278.153 129.213C271.27 127.771 264.134 128.795 257.853 132.128C255.59 133.337 252.597 135.882 250.418 134.278C249.601 133.678 249.642 132.061 248.519 131.386C247.37 130.695 245.85 130.976 244.631 131.253Z" fill="#512B52"/>
    <path d="M267.139 135.745L270.37 136.407C269.775 136.379 269.182 136.487 268.629 136.723C268.076 136.959 267.577 137.318 267.165 137.776C266.753 138.235 266.437 138.781 266.238 139.38C266.039 139.979 265.963 140.616 266.013 141.249C269.039 142.328 272.337 141.278 275.524 141.422C278.711 141.565 282.419 143.995 281.875 147.349C281.711 148.364 281.162 149.377 281.447 150.361C281.647 151.05 282.217 151.539 282.538 152.173C283.208 153.496 282.673 155.169 281.827 156.371C280.981 157.574 279.844 158.533 279.102 159.811C277.255 162.988 278.304 167.097 279.404 170.647C279.722 171.988 280.31 173.24 281.126 174.315C282.755 176.165 285.411 176.325 287.789 176.363C289.52 176.389 291.503 176.298 292.598 174.867C294.027 172.998 293.028 170.082 293.969 167.889C294.823 165.897 297 165.043 298.973 164.437C302.587 163.326 306.269 162.382 309.686 160.705C313.928 158.623 317.893 155.377 322.556 155.109C323.864 155.034 325.205 155.199 326.465 154.816C327.725 154.434 328.922 153.271 328.826 151.877C328.745 150.685 327.8 149.81 327.062 148.912C326.324 148.014 325.745 146.633 326.423 145.682L338.645 143.246C337.779 140.726 337.104 137.408 339.094 135.767C339.813 135.176 340.774 134.939 341.386 134.224C342.428 133.004 341.904 130.904 340.701 129.867C339.498 128.83 337.871 128.589 336.33 128.452C330.971 127.977 325.581 128.291 320.211 128.605C309.715 129.219 299.219 129.833 288.723 130.447C286.61 130.571 284.171 130.382 282.233 131.152C280.592 131.803 279.426 132.998 277.549 133.419C274.085 134.194 270.274 133.669 267.139 135.745Z" fill="#512B52"/>
    <path d="M325.018 162.999C324.689 162.944 324.352 163.025 324.077 163.227C323.896 163.44 323.788 163.713 323.771 164.001C323.563 165.27 323.811 166.577 324.467 167.659C324.801 168.19 325.262 168.616 325.802 168.892C326.342 169.169 326.942 169.286 327.539 169.231C328.994 169.033 330.066 167.709 331.403 167.062C333.465 166.067 342.219 164.516 336.163 161.024C334.076 159.821 332.728 160.883 331.083 161.675C329.212 162.697 327.115 163.155 325.018 162.999Z" fill="#512B52"/>
    <path d="M378.057 133.774C377.35 134.082 376.758 134.631 376.374 135.336C376.198 135.694 376.157 136.111 376.26 136.501C376.363 136.89 376.602 137.222 376.929 137.428C377.193 137.53 377.473 137.578 377.753 137.568L380.629 137.66C381.85 137.698 383.376 137.976 383.704 139.232C383.947 140.165 383.402 141.364 384.06 142.03C384.343 142.264 384.682 142.405 385.038 142.437C385.985 142.697 386.974 142.731 387.935 142.537C390.027 141.938 388.928 140.576 389.587 139.362C390.595 137.506 390.42 138.63 392.197 137.566C393.508 136.78 395.203 135.355 394.109 133.352C392.205 129.869 380.866 132.277 378.057 133.774Z" fill="#512B52"/>
    <path d="M434.804 132.023L433.134 132.26C429.37 132.797 425.583 133.338 421.958 134.544C423.527 135.207 425.174 135.638 426.852 135.826C427.776 135.875 428.694 136.014 429.594 136.242C431.196 136.751 432.809 138.065 434.357 137.392C435.316 136.975 435.629 135.908 436.424 135.343C436.972 134.953 439.054 134.322 439.286 133.928C441.167 130.745 436.25 131.817 434.804 132.023Z" fill="#512B52"/>
    <path d="M442.134 140.121C439.904 141.452 437.835 143.069 435.973 144.936C435.189 145.723 434.388 146.702 434.459 147.848C434.554 149.372 436.074 150.256 437.392 150.851L442.729 153.263C443.376 152.289 442.784 150.944 442.115 149.987C441.446 149.03 440.65 147.923 440.946 146.771C441.283 145.457 442.785 145.009 444.044 144.783C446.096 144.414 451.63 144.443 450.965 140.915C450.181 136.757 444.194 138.892 442.134 140.121Z" fill="#512B52"/>
    <path d="M441.061 375.408C440.553 376.977 440.505 378.827 441.384 380.197C442.37 381.735 444.344 382.309 446.051 381.919C447.752 381.436 449.267 380.396 450.385 378.945C451.406 377.73 452.247 376.354 452.877 374.866C453.756 372.547 454.376 370.125 454.725 367.651L456.382 358.366C456.752 356.291 456.738 349.928 453.164 352.001C452.187 352.568 449.927 357.039 448.904 358.306C447.06 360.592 446.816 362.809 445.845 365.577C444.629 369.045 442.185 371.934 441.061 375.408Z" fill="#512B52"/>
    <path d="M629.818 422.924C628.648 422.437 627.513 421.86 626.422 421.199C625.327 424.41 624.745 427.795 624.7 431.212L632.702 426.379C633.906 425.652 635.27 424.642 635.244 423.166C635.255 422.984 635.22 422.802 635.142 422.64C635.064 422.477 634.947 422.34 634.802 422.242C634.624 422.166 634.43 422.142 634.241 422.172C633.054 422.278 631.972 422.901 630.853 423.334C629.734 423.767 628.425 423.996 627.398 423.353" fill="#512B52"/>
    <path d="M672.029 425.793C671.151 426.048 670.293 426.377 669.463 426.776C667.627 427.773 666.378 429.667 664.725 430.98C663.144 432.237 661.24 432.927 659.372 433.598C658.822 434.117 659.075 435.161 659.671 435.617C660.313 436.006 661.049 436.183 661.785 436.124C663.726 436.169 665.771 436.189 667.472 435.189C668.43 434.525 669.327 433.766 670.149 432.921C672.138 431.15 674.525 429.982 676.889 428.853C677.749 428.506 678.544 427.999 679.238 427.354C680.723 425.793 680.827 423.383 678.686 422.852C676.955 422.423 673.677 425.224 672.029 425.793Z" fill="#512B52"/>
    <path d="M690.68 412.79C690.776 411.716 690.642 410.632 690.289 409.621C689.935 408.61 689.37 407.697 688.638 406.953C688.616 409.103 688.555 411.393 687.422 413.171C686.615 414.438 685.349 415.293 684.464 416.5C683.58 417.707 683.187 419.619 684.225 420.678C684.888 421.216 685.696 421.513 686.529 421.525C688.594 421.784 690.984 421.929 692.432 420.337C693.223 419.468 693.607 418.18 694.571 417.541C694.931 417.38 695.251 417.136 695.51 416.825C695.908 416.149 695.275 415.259 694.563 415.016C693.851 414.772 693.067 414.887 692.351 414.656C691.636 414.424 690.979 413.566 691.346 412.871" fill="#512B52"/>
    <path d="M657.531 333.967C656.448 334.248 655.326 334.319 654.219 334.176C652.381 333.815 650.95 332.336 649.466 331.124C645.938 328.256 641.649 326.657 637.215 326.555C633.182 326.474 629.111 327.64 625.15 326.827C625.409 328.363 626.641 329.515 627.955 330.2C629.269 330.885 630.72 331.229 632.04 331.9C634.155 332.985 635.832 334.848 636.765 337.146C637.19 338.206 637.458 339.359 638.102 340.284C639.419 342.175 641.915 342.59 644.117 342.435C646.989 342.234 649.989 341.352 652.661 342.494C654.704 343.368 656.167 345.277 657.874 346.762C659.58 348.246 661.984 349.348 663.944 348.277C661.908 347.573 660.137 346.194 658.888 344.34C657.639 342.486 656.977 340.255 657.001 337.972C658.923 338.16 664.459 338.087 664.16 334.602C663.908 331.648 659.182 333.648 657.531 333.967Z" fill="#512B52"/>
    <path d="M632.388 358C632.73 356.003 634.596 354.239 634.015 352.305C633.613 350.968 632.16 350.308 630.845 350.275C629.529 350.242 628.237 350.66 626.922 350.7C626.066 350.651 625.208 350.664 624.353 350.739C621.742 351.197 620.133 354.117 617.673 355.156C616.177 355.787 614.496 355.666 612.94 356.103C609.408 357.094 607.173 360.656 604.704 363.528C600.715 368.147 595.518 371.382 589.786 372.813C587.778 373.309 585.619 373.627 584.023 375.019C581.909 376.862 581.389 380.022 580.918 382.892C579.619 390.817 577.633 398.597 574.987 406.131L583.373 407.273C584.968 407.491 586.62 407.703 588.157 407.199C589.273 406.75 590.33 406.149 591.303 405.411C595.038 402.936 599.218 401.325 603.573 400.684C605.77 400.362 608.072 400.303 610.133 401.174C612.194 402.045 613.962 404.021 614.135 406.38C615.026 406.084 615.976 406.052 616.883 406.287C617.79 406.523 618.62 407.017 619.284 407.716C620.598 409.145 621.458 410.977 621.743 412.954C621.964 414.179 622.185 415.646 623.25 416.16C624.118 416.579 625.115 416.128 626.065 416.046C629.289 415.771 631.965 419.784 635.134 419.093C638.533 418.352 639.368 412.919 642.683 411.831C644.588 411.206 647.259 411.966 648.171 410.075C648.975 408.409 647.371 406.486 647.537 404.62C647.74 402.322 650.28 401.347 652.237 400.366C658.986 396.987 662.189 387.292 658.919 380.142C656.981 375.906 653.168 372.571 652.464 367.917C651.922 364.336 653.245 360.161 651.106 357.342C650.018 355.909 648.175 355.117 647.528 353.407C647.12 352.33 647.284 351.108 647.065 349.97C646.845 348.833 645.915 347.643 644.863 347.938C641.807 348.794 640.832 358.867 639.197 361.314C636.71 365.035 631.605 362.584 632.388 358Z" fill="#512B52"/>
    <path d="M575.914 337.773C574.87 337.461 573.73 337.153 572.73 337.599C571.729 338.046 571.145 339.614 571.948 340.391C578.229 340.13 584.549 339.871 590.778 340.781C597.953 341.83 605.055 344.429 612.262 343.664C608.145 342.368 603.96 341.331 599.729 340.56L592.673 339.122C590.781 338.699 588.868 338.383 586.944 338.177C582.919 337.822 579.872 338.958 575.914 337.773Z" fill="#512B52"/>
    <path d="M582.203 314.424C581.681 314.378 581.036 314.338 580.766 314.816C580.508 315.274 580.803 315.878 580.664 316.39C580.475 317.091 579.616 317.27 578.939 317.174C578.261 317.079 577.529 316.851 576.929 317.199C576.625 317.421 576.396 317.742 576.277 318.114C576.159 318.487 576.156 318.89 576.27 319.264C576.516 320.006 576.913 320.681 577.432 321.24C578.319 322.433 579.33 323.515 580.446 324.466C582.604 326.167 585.529 326.986 586.889 329.455C587.081 329.934 587.376 330.357 587.75 330.691C588.402 331.133 589.254 330.797 589.957 330.454L592.42 329.253C592.864 329.082 593.26 328.794 593.572 328.417C594.135 327.602 593.789 326.443 593.317 325.565C592.844 324.687 592.239 323.778 592.341 322.771C592.522 320.976 594.684 320.29 595.573 318.754C596.469 317.206 595.886 315.212 595.989 313.395C596.11 311.271 597.361 308.508 595.349 306.921C593.638 305.572 592.004 306.818 590.776 308.307C588.187 311.448 586.963 314.849 582.203 314.424Z" fill="#512B52"/>
    <path d="M597.157 282.685C597.998 284.404 599.751 285.43 600.669 287.104C601.663 288.918 601.549 291.262 602.628 293.02C603.734 294.825 605.961 295.783 606.582 297.835C607.259 300.075 605.722 302.798 606.947 304.756C607.176 305.076 607.464 305.341 607.794 305.536C608.124 305.731 608.488 305.851 608.863 305.888C609.239 305.924 609.617 305.878 609.975 305.75C610.332 305.623 610.661 305.417 610.94 305.147C611.457 304.547 611.733 303.755 611.711 302.94C611.688 302.125 611.368 301.352 610.82 300.786C610.094 300.08 609.052 299.775 608.447 298.95C608.131 298.474 607.921 297.928 607.832 297.353C607.502 295.694 607.555 293.974 607.986 292.342C608.148 291.928 608.189 291.471 608.104 291.031C607.832 290.185 606.758 290.125 606.005 289.733C604.294 288.842 604.336 286.265 604.635 284.258C604.436 285.594 599.977 283.322 599.51 282.565C598.582 281.062 599.087 278.162 598.903 276.501C596.901 277.53 596.129 280.584 597.157 282.685Z" fill="#512B52"/>
    <path d="M552.236 309.13C551.413 308.147 550.173 307.118 549.07 307.711C548.228 308.163 547.996 309.407 548.326 310.349C548.728 311.264 549.347 312.051 550.122 312.633C552.421 314.657 554.897 316.484 556.903 318.836C560.493 323.047 562.394 328.728 566.299 332.607C567.083 333.506 568.122 334.106 569.257 334.315C570.394 334.428 571.672 333.651 571.802 332.44C571.91 331.442 571.258 330.549 570.622 329.81C569.105 328.05 567.445 326.429 566.013 324.589C565.352 323.883 564.936 322.957 564.835 321.964C564.828 320.973 565.674 319.937 566.573 320.182C565.48 319.883 564.669 317.939 563.063 317.573C561.722 317.268 561.398 318.154 559.801 317.424C556.757 316.03 554.368 311.677 552.236 309.13Z" fill="#512B52"/>
    <path d="M623.777 213.387C622.904 213.11 622.045 212.783 621.205 212.407C618.944 211.682 615.953 213.456 616.254 215.954C616.455 217.614 617.902 218.733 618.702 220.173C619.887 222.308 619.571 225.017 618.948 227.408C618.795 228.148 618.504 228.849 618.093 229.467C617.517 230.119 616.83 230.647 616.067 231.022C613.014 232.849 610.322 235.29 608.139 238.21C607.902 238.48 607.736 238.812 607.66 239.173C607.553 240.017 608.347 240.631 608.796 241.335C609.794 242.898 609.073 245.001 609.171 246.889C609.156 247.156 609.205 247.422 609.314 247.664C609.422 247.905 609.587 248.112 609.791 248.267C610.393 248.593 611.105 248.039 611.431 247.408C612.513 245.317 611.698 241.96 613.727 240.951C614.111 240.76 614.577 240.68 614.833 240.32C615.239 239.749 614.847 238.904 615.053 238.221C615.362 237.197 616.675 237.151 617.683 237.196C619.418 237.274 621.153 237.027 622.81 236.468C623.459 236.303 624.05 235.938 624.507 235.419C625.114 234.611 625.06 233.462 624.939 232.435C624.332 227.314 622.812 222.364 620.461 217.852C622.243 218.095 624.183 218.306 625.721 217.314C626.582 216.759 627.615 215.099 627.188 213.969C626.512 212.182 625.292 213.686 623.777 213.387Z" fill="#512B52"/>
    <path d="M395.254 241.553C395.467 242.775 395.677 244.06 395.302 245.236C394.927 246.412 393.747 247.395 392.633 247.034C391.769 246.755 391.27 245.827 390.656 245.12C387.243 241.187 379.541 243.464 377.433 238.598C376.572 236.613 377.157 234.234 376.57 232.137C376.2 230.926 375.463 229.88 374.475 229.164C373.487 228.448 372.305 228.102 371.113 228.181C370.026 228.349 368.968 228.686 367.973 229.181C361.306 232.031 354.307 233.899 347.168 234.735C345.811 234.823 344.469 235.084 343.17 235.511C340.239 236.645 338.236 239.546 336.811 242.505C335.385 245.465 334.333 248.669 332.422 251.299C330.414 254.062 327.6 255.997 324.974 258.09C323.963 258.786 323.121 259.728 322.517 260.839C321.948 262.086 321.98 263.536 322.025 264.922L322.561 281.759C322.63 283.925 322.717 286.168 323.625 288.106C324.759 290.526 326.999 292.111 328.554 294.249C330.14 296.446 330.966 299.16 330.892 301.933C330.859 303.047 330.756 304.366 331.569 305.066C332.064 305.408 332.643 305.586 333.232 305.576L354.572 307.44C358.326 307.768 362.486 308.307 364.937 311.36C366.094 312.8 367.023 314.872 368.795 315.026C369.555 315.093 370.294 314.76 371.054 314.695C372.972 314.533 374.657 316.087 375.72 317.798C377.329 320.406 378.059 323.52 377.791 326.629C377.617 328.581 377.05 330.478 376.928 332.435C376.462 339.878 382.375 346.346 382.49 353.805C382.557 358.192 380.605 362.292 378.703 366.182C381.774 371.147 379.259 377.758 380.482 383.563C381.641 389.07 385.944 393.381 387.016 398.908C387.506 401.438 387.535 404.551 389.625 405.855C390.543 406.332 391.56 406.549 392.578 406.486C398.723 406.563 404.798 405.087 410.306 402.178C412.891 400.809 415.57 398.765 416.022 395.723C416.386 393.27 415.22 390.526 416.406 388.389C417.804 385.871 421.386 386.071 423.443 384.134C426.78 380.993 424.178 375.002 425.53 370.478C426.746 366.411 430.93 364.25 433.004 360.6C433.82 359.03 434.405 357.336 434.74 355.577C435.69 351.372 436.282 347.084 436.507 342.765C436.562 340.141 436.744 337.522 437.05 334.918C439.286 320.092 453.02 310.164 457.479 295.921C457.904 294.561 458.104 292.749 456.971 291.979C456.298 291.637 455.536 291.552 454.811 291.738L444.974 293.062C443.752 293.226 442.457 293.38 441.335 292.838C440.213 292.296 439.408 290.781 440.004 289.631C441.674 286.401 438.238 282.319 436.711 279.009C432.599 270.096 427.702 261.62 422.086 253.697C421.727 253.289 421.502 252.767 421.445 252.211L424.237 252.31C423.295 248.701 421.739 244.751 418.454 243.431C416.602 242.687 414.552 242.944 412.577 243.059C406.919 243.389 400.853 242.478 395.254 241.553Z" fill="#512B52"/>
    <path d="M412.581 160.218C414.062 161.896 415.721 163.675 417.863 163.968C421.646 164.485 424.367 160.309 426.099 156.682C426.163 157.606 426.562 158.468 427.212 159.083C427.862 159.698 428.712 160.018 429.58 159.975C430.513 159.808 431.405 159.436 432.198 158.883C439.694 154.511 448.091 152.194 456.633 152.141C456.551 151.451 456.712 150.752 457.084 150.18C457.456 149.609 458.013 149.204 458.649 149.045C460.385 148.678 461.95 150.28 462.788 151.945C463.626 153.61 464.148 155.54 465.479 156.786C466.81 158.032 469.388 157.978 469.914 156.173C470.418 154.441 468.727 152.963 467.322 151.942C465.917 150.92 464.436 149.03 465.383 147.523C472.56 145.827 479.782 144.125 487.127 143.788C488.377 143.834 489.623 143.605 490.787 143.115C491.907 142.528 492.798 141.197 492.496 139.904C490.894 140.307 489.215 140.19 487.674 139.57C486.134 138.95 484.801 137.854 483.847 136.422C494.038 135.525 504.877 134.76 513.909 139.878C514.993 142.361 509.469 144.427 510.947 146.667C511.418 147.381 512.363 147.465 513.181 147.481C519.457 147.605 525.77 147.727 531.975 146.716C534.243 146.346 536.534 145.825 538.81 146.124C542.602 146.623 545.846 149.324 549.577 150.204C551.095 150.563 552.798 150.575 554.078 149.632C555.358 148.69 555.908 146.543 554.859 145.318C558.372 141.644 564.202 142.554 568.836 144.313C573.47 146.072 577.86 148.909 582.765 149.301C586.282 149.583 589.848 148.573 593.324 149.215C595.508 149.618 597.54 150.655 599.675 151.292C603.712 152.497 607.982 152.242 612.174 152.3C622.869 152.454 633.446 154.698 643.384 158.919C644.677 159.368 645.861 160.115 646.853 161.107C647.778 162.164 648.25 163.806 647.628 165.091L637.36 163.489C638.327 165.522 640.83 165.868 642.863 166.57C644.895 167.271 647.003 169.667 645.781 171.537C643.579 170.789 641.583 173.139 640.471 175.301C639.358 177.463 638.002 180.053 635.694 180.184C633.627 180.302 631.128 178.424 629.781 180.101C631.642 182.607 633.236 185.326 634.532 188.209C635.863 191.168 636.811 194.897 635.012 197.56C634.729 198.035 634.3 198.39 633.798 198.564C632.329 198.961 631.375 197.043 630.321 195.881C628.993 194.415 626.985 194.001 625.188 193.313C623.39 192.626 621.496 191.275 621.355 189.242C621.267 187.977 621.893 186.802 622.354 185.633C623.128 183.663 623.467 181.529 623.344 179.396C623.243 177.68 622.792 175.896 621.638 174.697C620.483 173.499 618.49 173.118 617.251 174.216C616.672 174.728 616.209 175.548 615.458 175.578C614.131 175.633 613.112 173.164 612.045 174.006C612.17 174.904 611.996 175.821 611.552 176.596C608.366 179.552 603.472 178.302 599.365 179.346C597.412 179.943 595.543 180.814 593.805 181.937C593.156 182.234 592.603 182.729 592.216 183.361C591.704 184.424 592.269 185.786 593.172 186.493C594.131 187.12 595.207 187.513 596.325 187.642C601.332 188.654 606.412 190.22 610.365 193.652C614.318 197.085 616.91 202.758 615.659 208.031L605.785 197.961C606.16 202.189 606.373 206.429 606.424 210.68C606.488 211.51 606.381 212.345 606.111 213.126C605.407 214.785 603.499 215.344 601.827 215.71C601.362 215.804 600.921 216.003 600.533 216.292C600.145 216.581 599.819 216.954 599.575 217.388C599.332 217.821 599.177 218.304 599.122 218.806C599.066 219.307 599.11 219.816 599.252 220.298C599.846 222.364 601.327 223.975 602.683 225.58C604.039 227.186 605.373 229.01 605.551 231.163C605.728 233.316 604.206 235.743 602.186 235.593C600.654 235.479 599.518 234.016 598.865 232.534C598.212 231.051 597.823 229.399 596.842 228.139C593.871 224.326 587.198 225.96 584.537 221.895C583.858 222.716 583.388 223.709 583.17 224.779C582.952 225.848 582.994 226.96 583.292 228.008C584.53 227.18 586.225 227.949 587.155 229.151C588.086 230.353 588.525 231.894 589.255 233.244C590.241 235.065 591.81 236.68 591.947 238.779C591.911 239.572 591.923 240.368 591.985 241.159C592.229 242.431 593.236 243.344 593.934 244.407C595.559 246.879 595.479 250.277 594.431 253.083C593.384 255.888 591.503 258.233 589.64 260.506C586.385 264.476 583.064 268.423 579.206 271.721C578.105 272.661 576.93 273.586 576.245 274.902C575.559 276.217 575.524 278.063 576.577 279.064C575.824 279.104 574.471 279.5 573.717 279.54C573.452 276.312 573.395 273.069 573.545 269.833C570.57 268.308 567.366 272.391 567.75 275.89C568.134 279.388 570.505 282.196 572.193 285.223C573.428 287.436 574.345 290.017 573.933 292.555C573.521 295.093 571.398 297.435 568.994 297.211C565.169 296.855 563.569 290.995 559.782 290.324C559.448 290.241 559.097 290.278 558.785 290.43C558.223 290.759 558.125 291.562 558.094 292.246C557.939 295.601 557.805 299.089 559.032 302.182C560.827 306.708 565.465 310.509 564.492 315.312C559.251 312.712 556.526 306.439 555.289 300.414C554.052 294.389 553.846 288.063 551.628 282.367C549.944 284.671 546.404 282.767 544.866 280.35C543.407 278.059 542.509 275.408 541.094 273.086C539.678 270.764 537.51 268.685 534.918 268.558C532.199 268.424 529.842 270.415 527.768 272.296C526.063 273.843 524.313 275.45 523.317 277.589C521.866 280.7 522.246 284.368 522.176 287.843C522.1 291.599 521.354 295.562 518.956 298.312C516.557 301.062 512.13 302.019 509.484 299.541C508.102 298.247 507.434 296.314 506.838 294.459C503.966 285.514 501.575 276.403 499.675 267.168C499.231 269.275 497.496 271.992 495.84 270.751C495.468 270.417 495.167 270.003 494.956 269.536C491.866 263.946 486.143 260.593 480.361 258.582C474.578 256.572 468.495 255.634 462.777 253.425C459.572 252.186 456.512 250.559 453.655 248.576C452.927 249.717 452.502 251.048 452.425 252.427C452.347 253.806 452.621 255.181 453.217 256.408C454.485 258.804 457.355 260.191 459.812 259.354C461.082 258.921 462.154 257.98 463.414 257.515C464.674 257.051 466.365 257.279 466.916 258.574C467.443 259.814 466.646 261.314 467.041 262.609C467.644 264.58 470.43 264.732 471.404 266.527C472.129 267.862 471.533 269.634 470.498 270.712C469.463 271.789 468.082 272.38 466.818 273.13C462.718 275.563 459.803 279.716 456.22 282.948C452.637 286.18 447.581 288.539 443.311 286.466C444.329 280.965 438.189 276.927 437.06 271.451C436.688 269.648 436.881 267.734 436.35 265.977C435.582 263.434 433.468 261.686 431.734 259.759C429.63 257.396 427.991 254.607 426.914 251.558C425.837 248.508 425.343 245.259 425.461 242.002C425.555 239.739 425.944 237.439 425.461 235.233C424.978 233.027 423.267 230.892 421.147 230.992C416.303 231.22 410.202 231.605 407.661 227.199C406.754 225.626 406.359 223.323 407.671 222.118C408.596 221.268 409.961 221.348 411.176 221.476L422.088 222.621C424.64 222.889 427.399 223.11 429.589 221.686C431.78 220.262 432.729 216.482 430.701 214.807C429.219 213.583 426.564 213.649 426.133 211.703C425.775 210.082 427.456 208.243 426.548 206.888C425.897 205.917 424.433 206.186 423.546 206.914C422.659 207.642 422.016 208.707 421.023 209.259C419.282 210.226 417.201 209.305 415.328 208.68C413.454 208.054 410.943 208.001 410.034 209.858C409.018 211.935 410.935 214.656 409.927 216.737C408.594 219.489 404.078 217.922 402.205 220.289C400.056 223.005 403.667 227.054 402.943 230.524C402.018 231.013 400.989 231.237 399.959 231.176C398.928 231.114 397.93 230.768 397.062 230.171C396.208 229.551 395.527 228.696 395.093 227.697C394.658 226.697 394.485 225.59 394.593 224.495C394.772 222.934 395.535 221.341 395.024 219.866C394.611 218.673 393.489 217.963 392.446 217.349L381.842 211.094C380.857 213.044 382.102 215.46 383.659 216.924C385.215 218.388 387.165 219.491 388.188 221.418C388.835 222.753 388.98 224.301 388.593 225.746C388.207 227.191 387.318 228.424 386.108 229.194C385.957 229.306 385.784 229.381 385.603 229.415C385.421 229.448 385.235 229.44 385.057 229.39C384.888 229.283 384.74 229.142 384.623 228.974C384.506 228.806 384.422 228.615 384.375 228.411C382.504 223.301 379.695 218.263 375.204 215.593C370.713 212.924 364.259 213.472 361.314 217.969C360.615 219.037 360.145 220.255 359.536 221.384C356.298 227.384 349.357 230.225 342.872 230.039C342.238 230.077 341.607 229.918 341.055 229.583C340.007 228.811 340.054 227.172 340.214 225.823L340.895 220.1C341.032 218.951 341.23 217.681 342.082 216.963C343.283 215.952 345.016 216.59 346.546 216.567C347.705 216.509 348.82 216.072 349.738 215.315C350.657 214.559 351.335 213.519 351.681 212.337C351.991 211.143 351.989 209.882 351.676 208.69C351.363 207.497 350.751 206.419 349.906 205.57C349.205 204.867 348.264 203.984 348.634 203.036C348.782 202.774 348.982 202.55 349.22 202.379C349.457 202.208 349.727 202.095 350.011 202.047C352.759 201.196 355.662 200.972 358.365 199.967C361.067 198.962 363.688 196.906 364.327 193.93C364.524 193.017 364.613 191.912 365.381 191.46C365.766 191.286 366.18 191.196 366.598 191.195C368.063 190.972 369.397 190.173 370.337 188.953C371.277 187.733 371.756 186.182 371.678 184.605C372.973 183.639 374.787 184.35 376.04 185.377C377.293 186.404 378.399 187.761 379.924 188.204C382.765 189.03 385.51 186.345 388.454 186.332C389.693 186.327 390.974 186.794 392.139 186.346C393.32 185.892 394.025 184.638 394.932 183.711C395.838 182.784 397.428 182.219 398.265 183.217L397.552 177.584C398.988 177.97 400.484 178.025 401.94 177.744C403.397 177.463 404.78 176.853 405.998 175.954L396.788 172.633C396.467 172.547 396.171 172.378 395.926 172.141C395.257 171.372 395.922 170.172 396.466 169.298C397.769 167.205 397.988 163.758 395.845 162.716C394.383 162.005 392.705 162.859 391.302 163.694L384.579 167.694C384.366 169.058 385.928 169.831 386.897 170.749C387.482 171.305 387.897 172.037 388.086 172.849C388.275 173.661 388.229 174.515 387.955 175.298C387.681 176.082 387.192 176.759 386.55 177.24C385.909 177.721 385.147 177.984 384.363 177.995C384.806 178.609 385.113 179.322 385.263 180.08C385.413 180.838 385.4 181.623 385.228 182.375L380.705 182.722C380.197 182.831 379.67 182.722 379.238 182.417C378.754 181.958 378.819 181.155 378.707 180.475C378.437 178.833 376.931 177.683 375.394 177.388C373.857 177.093 372.285 177.471 370.763 177.844C370.117 178.093 369.407 178.075 368.772 177.795C368.408 177.543 368.132 177.17 367.985 176.734C367.317 175.008 367.941 172.978 369.013 171.502C370.084 170.025 371.551 168.946 372.869 167.717C376.019 164.766 378.334 160.935 379.552 156.654C382.041 155.541 384.619 154.028 387.109 152.915C390.948 150.84 395.253 149.95 399.539 150.344L407.972 150.516C410.468 150.567 413.032 150.632 415.341 151.648C417.649 152.664 419.678 154.861 419.837 157.52C419.885 157.821 419.861 158.13 419.766 158.419C419.672 158.707 419.51 158.965 419.296 159.168C418.97 159.358 418.601 159.447 418.23 159.425C415.902 159.512 414.909 160.131 412.581 160.218Z" fill="#512B52"/>
    <path d="M345.371 188.423C345.7 188.09 345.937 187.667 346.056 187.199C346.175 186.732 346.17 186.239 346.043 185.774C345.242 185.444 344.37 185.359 343.525 185.53C342.681 185.7 341.898 186.118 341.264 186.737C340.765 187.277 340.334 187.884 339.984 188.544C338.876 190.473 337.896 192.778 338.538 194.934C338.59 195.17 338.686 195.391 338.82 195.586C338.954 195.781 339.123 195.946 339.317 196.071C339.604 196.194 339.915 196.246 340.224 196.222C341.445 196.221 342.664 196.141 343.876 195.983C344.62 195.885 345.484 195.661 345.772 194.922C346.15 193.951 345.235 192.852 345.501 191.84C345.677 191.387 345.943 190.981 346.281 190.649C346.448 190.482 346.577 190.275 346.657 190.046C346.736 189.816 346.765 189.57 346.74 189.327C346.632 188.852 345.951 188.583 345.706 188.995" fill="#3F3D56"/>
    <path d="M351.701 179.665C350.616 179.399 349.498 179.324 348.391 179.443C348.147 179.435 347.904 179.494 347.686 179.614C347.475 179.78 347.323 180.016 347.252 180.286C347.018 181.086 347.076 181.952 347.413 182.71C347.75 183.467 348.342 184.062 349.072 184.374C349.469 184.472 349.85 184.635 350.201 184.858C351.136 185.633 350.54 187.217 350.717 188.467C350.916 189.871 352.189 191.049 351.956 192.447C351.772 193.548 350.67 194.42 350.847 195.522C351.033 196.677 352.406 197.023 353.5 197.116C354.134 197.234 354.787 197.155 355.379 196.886C355.973 196.453 356.396 195.8 356.565 195.053C357.013 193.63 357.201 192.129 357.119 190.63C357.115 189.949 356.954 189.278 356.652 188.678C356.323 188.202 355.957 187.756 355.56 187.343C353.464 184.741 355.671 180.859 351.701 179.665Z" fill="#3F3D56"/>
    <path opacity="0.8" d="M627.364 383.533C627.364 383.533 466.806 285.171 397.683 303.808C397.683 303.808 251.192 320.633 234.215 357.648C234.215 357.648 187.648 202.34 170.67 197.163" stroke="#A7DBAB" stroke-width="2" stroke-miterlimit="10"/>
    <path opacity="0.8" d="M234.215 357.648C261.136 281.03 503.671 196.128 503.671 196.128C469.231 205.446 397.683 303.808 397.683 303.808C397.683 303.808 246.341 186.291 170.67 197.163C170.67 197.163 503.914 208.811 627.364 383.533" stroke="#A7DBAB" stroke-width="2" stroke-miterlimit="10"/>
    <path d="M170.671 204.669C174.555 204.669 177.704 201.309 177.704 197.163C177.704 193.017 174.555 189.656 170.671 189.656C166.786 189.656 163.637 193.017 163.637 197.163C163.637 201.309 166.786 204.669 170.671 204.669Z" fill="#A7DBAB"/>
    <path d="M234.215 365.155C238.099 365.155 241.248 361.794 241.248 357.648C241.248 353.503 238.099 350.142 234.215 350.142C230.33 350.142 227.181 353.503 227.181 357.648C227.181 361.794 230.33 365.155 234.215 365.155Z" fill="#A7DBAB"/>
    <path d="M503.671 203.634C507.556 203.634 510.705 200.273 510.705 196.128C510.705 191.982 507.556 188.621 503.671 188.621C499.787 188.621 496.638 191.982 496.638 196.128C496.638 200.273 499.787 203.634 503.671 203.634Z" fill="#A7DBAB"/>
    <path d="M627.364 391.04C631.248 391.04 634.397 387.679 634.397 383.533C634.397 379.387 631.248 376.026 627.364 376.026C623.479 376.026 620.33 379.387 620.33 383.533C620.33 387.679 623.479 391.04 627.364 391.04Z" fill="#A7DBAB"/>
    <path d="M397.683 311.315C401.568 311.315 404.717 307.954 404.717 303.808C404.717 299.662 401.568 296.301 397.683 296.301C393.799 296.301 390.65 299.662 390.65 303.808C390.65 307.954 393.799 311.315 397.683 311.315Z" fill="#A7DBAB"/>
    <path opacity="0.1" d="M170.926 209.5C176.886 209.5 181.717 204.465 181.717 198.255C181.717 192.044 176.886 187.009 170.926 187.009C164.966 187.009 160.134 192.044 160.134 198.255C160.134 204.465 164.966 209.5 170.926 209.5Z" fill="black"/>
    <path d="M170.925 164.518C178.782 164.518 185.151 157.881 185.151 149.694C185.151 141.508 178.782 134.871 170.925 134.871C163.069 134.871 156.7 141.508 156.7 149.694C156.7 157.881 163.069 164.518 170.925 164.518Z" fill="white"/>
    <path d="M170.925 128.226C165.592 128.226 160.476 130.434 156.704 134.364C152.933 138.294 150.814 143.625 150.814 149.183C150.814 160.758 170.925 198.766 170.925 198.766C170.925 198.766 191.037 160.758 191.037 149.183C191.037 143.625 188.918 138.294 185.146 134.364C181.375 130.434 176.259 128.226 170.925 128.226ZM170.925 159.406C169.082 159.406 167.28 158.837 165.748 157.77C164.215 156.702 163.02 155.186 162.315 153.411C161.61 151.636 161.425 149.684 161.785 147.8C162.144 145.916 163.032 144.185 164.335 142.827C165.639 141.469 167.299 140.544 169.107 140.169C170.915 139.794 172.789 139.986 174.492 140.722C176.195 141.457 177.651 142.701 178.675 144.299C179.699 145.896 180.246 147.773 180.246 149.694C180.246 150.97 180.004 152.233 179.536 153.411C179.068 154.589 178.381 155.66 177.516 156.562C176.65 157.464 175.623 158.179 174.492 158.667C173.361 159.155 172.149 159.406 170.925 159.406Z" fill="#7BB0A8"/>
    <path opacity="0.1" d="M627.267 395.4C633.227 395.4 638.058 390.365 638.058 384.154C638.058 377.944 633.227 372.909 627.267 372.909C621.307 372.909 616.475 377.944 616.475 384.154C616.475 390.365 621.307 395.4 627.267 395.4Z" fill="black"/>
    <path d="M627.266 351.44C635.123 351.44 641.492 344.803 641.492 336.617C641.492 328.43 635.123 321.793 627.266 321.793C619.41 321.793 613.041 328.43 613.041 336.617C613.041 344.803 619.41 351.44 627.266 351.44Z" fill="white"/>
    <path d="M627.266 315.148C624.625 315.148 622.01 315.69 619.57 316.743C617.13 317.796 614.913 319.34 613.045 321.286C611.178 323.232 609.696 325.542 608.686 328.085C607.675 330.628 607.155 333.353 607.155 336.105C607.155 347.68 627.266 385.688 627.266 385.688C627.266 385.688 647.378 347.68 647.378 336.105C647.378 333.353 646.858 330.628 645.847 328.085C644.836 325.542 643.355 323.232 641.487 321.286C639.62 319.34 637.403 317.796 634.963 316.743C632.523 315.69 629.907 315.148 627.266 315.148ZM627.266 346.328C625.423 346.328 623.621 345.759 622.088 344.692C620.556 343.624 619.361 342.108 618.656 340.333C617.95 338.558 617.766 336.606 618.125 334.722C618.485 332.838 619.373 331.107 620.676 329.749C621.98 328.391 623.64 327.466 625.448 327.091C627.256 326.716 629.13 326.908 630.833 327.644C632.536 328.379 633.992 329.623 635.016 331.221C636.04 332.818 636.586 334.695 636.586 336.616C636.586 337.892 636.345 339.155 635.877 340.333C635.409 341.511 634.722 342.582 633.857 343.484C632.991 344.386 631.964 345.101 630.833 345.589C629.702 346.077 628.49 346.328 627.266 346.328Z" fill="#7BB0A8"/>
</svg>
