<svg width="255" height="429" viewBox="0 0 255 429" fill="none" xmlns="http://www.w3.org/2000/svg">
  <path d="M78.7568 368.463C89.401 373.391 166.595 373.277 177.58 368.463" stroke="white" stroke-width="9.31149" stroke-linecap="round" stroke-linejoin="round"/>
  <path d="M97.3799 420.607C108.024 425.535 147.972 425.422 158.957 420.607" stroke="white" stroke-width="9.31149" stroke-linecap="round" stroke-linejoin="round"/>
  <path d="M78.7568 385.224C89.401 390.151 166.595 390.038 177.58 385.224" stroke="white" stroke-width="9.31149" stroke-linecap="round" stroke-linejoin="round"/>
  <path d="M78.7568 351.702C89.401 356.63 166.595 356.517 177.58 351.702" stroke="white" stroke-width="9.31149" stroke-linecap="round" stroke-linejoin="round"/>
  <path d="M75.908 333.736C85.3935 337.312 173.82 337.728 182.428 333.736C182.428 333.736 190.539 275.645 199.346 247.815C211.057 210.805 244.121 180.144 246.676 141.409C250.376 85.3101 220.671 13.0772 129.053 8.96054C37.4355 4.84384 3.52809 93.5667 8.46604 141.409C12.5116 180.607 47.264 205.155 59.9784 247.815C68.2982 275.73 75.908 333.736 75.908 333.736V333.736Z" stroke="white" stroke-width="15.8176"/>
  <path d="M78.689 329.154C78.689 329.154 66.79 256.237 106.231 232.237C147.181 207.319 172.004 198.429 189.016 152.617C183.872 174.974 172.871 203.603 150.314 236.242C128.451 267.875 96.7551 276.636 86.0353 300.03C79.4857 314.323 78.689 329.154 78.689 329.154V329.154Z" fill="white" stroke="white" stroke-width="4.65575" stroke-linecap="round" stroke-linejoin="round"/>
  <path d="M78.6884 329.154C78.6884 329.154 57.6726 233.633 83.2479 195.195C112.771 150.823 166.907 147.745 191.827 101.817C191.827 101.817 204.868 157.305 150.313 236.242C128.45 267.875 96.7545 276.636 86.0346 300.03C79.4851 314.323 78.6884 329.154 78.6884 329.154Z" stroke="white" stroke-width="9.31149" stroke-linecap="round" stroke-linejoin="round"/>
</svg>
